# File created by Blade
# Date/Time:  Wed Jan 21 16:33:30 2015
# Frame Rate: 120.000 fps
#------------------------------------------------------
:FULLY-SPECIFIED
:DEGREES
209
root 30.132899 35.020990 -24.155927 -133.900287 86.261058 -132.556528
Spine 31.214703 4.542661 4.581474
Head 24.451327 -7.988575 1.707001
LeftShoulder -7.207618 -18.635772 -3.040289
LeftArm -8.362334 24.163055 -81.305333
LeftForeArm -0.247192 0.000000 5.008934
LeftHand 0.033272 -0.000000 0.578978
LeftHandThumb1 -26.253704 0.000000 33.147579
RightShoulder -3.297867 -14.562660 4.146328
RightArm 24.948941 -15.077329 64.934346
RightForeArm -20.022502 -0.000000 20.393413
RightHand 0.054631 -0.000000 0.096006
RightHandThumb1 -24.326973 -0.000000 -32.862282
LeftUpLeg -20.813596 0.880646 -2.172049
LeftLeg 18.289791 -0.000000 -0.000000
LeftFoot -18.180705 25.558619 -9.839071
LeftToeBase 15.183688 -0.000000 -0.000000
RightUpLeg -13.288428 -1.927385 8.994672
RightLeg 19.355711 -0.000000 -0.000000
RightFoot -25.774133 -24.502394 16.468893
RightToeBase 17.281877 -0.000000 -0.000000
210
root 30.203846 35.025583 -24.149198 -134.765823 86.126945 -133.414981
Spine 31.428083 4.433117 4.525245
Head 24.251985 -8.025613 1.825373
LeftShoulder -7.085221 -18.750401 -2.949546
LeftArm -8.151832 24.227579 -81.211443
LeftForeArm -0.175504 -0.000000 5.067680
LeftHand 0.179039 -0.000000 0.934152
LeftHandThumb1 -26.253704 0.000000 33.147579
RightShoulder -3.276615 -14.548365 4.196296
RightArm 25.078631 -15.055996 64.898798
RightForeArm -20.405390 0.000000 20.501273
RightHand 0.093227 -0.000000 0.317004
RightHandThumb1 -24.326973 -0.000000 -32.862282
LeftUpLeg -20.598840 0.626684 -2.055974
LeftLeg 18.090208 -0.000000 -0.000000
LeftFoot -18.288307 25.480153 -9.781766
LeftToeBase 15.166066 -0.000000 -0.000000
RightUpLeg -13.144459 -1.862033 9.060513
RightLeg 19.308597 -0.000000 -0.000000
RightFoot -25.722486 -24.666113 16.428874
RightToeBase 17.262708 -0.000000 -0.000000
211
root 30.260883 35.027397 -24.149170 -135.572929 86.045232 -134.289306
Spine 31.612051 4.334745 4.401844
Head 23.994695 -8.053228 1.960040
LeftShoulder -7.021794 -18.915278 -2.803769
LeftArm -7.946617 24.221513 -81.147037
LeftForeArm -0.188307 -0.000000 5.147069
LeftHand 0.194942 -0.000000 1.002825
LeftHandThumb1 -26.253704 0.000000 33.147579
RightShoulder -3.217156 -14.444457 4.225097
RightArm 25.125625 -15.293325 64.761306
RightForeArm -20.392543 -0.000000 20.732598
RightHand 0.050423 -0.000000 0.343339
RightHandThumb1 -24.326973 -0.000000 -32.862282
LeftUpLeg -20.464477 0.344071 -1.985412
LeftLeg 17.867510 -0.000000 -0.000000
LeftFoot -18.384130 25.516702 -9.792096
LeftToeBase 15.073932 -0.000000 -0.000000
RightUpLeg -13.118207 -1.823971 9.077028
RightLeg 19.288597 -0.000000 -0.000000
RightFoot -25.567851 -24.833613 16.261762
RightToeBase 17.356826 -0.000000 -0.000000
212
root 30.309625 35.029456 -24.158101 -136.198929 86.007373 -135.027763
Spine 31.777250 4.308889 4.306010
Head 23.727575 -8.122428 2.029417
LeftShoulder -6.912842 -18.944861 -2.731310
LeftArm -7.585240 24.404649 -81.048767
LeftForeArm -0.123986 -0.000000 5.232576
LeftHand 0.312509 -0.000000 1.342149
LeftHandThumb1 -26.253704 0.000000 33.147579
RightShoulder -3.222153 -14.396722 4.239937
RightArm 25.305948 -15.395981 64.651637
RightForeArm -20.417853 0.000000 20.816356
RightHand 0.067579 -0.000000 0.446052
RightHandThumb1 -24.326973 -0.000000 -32.862282
LeftUpLeg -20.344437 -0.013208 -1.932804
LeftLeg 17.575295 -0.000000 -0.000000
LeftFoot -18.455853 25.679974 -9.886692
LeftToeBase 14.899998 -0.000000 -0.000000
RightUpLeg -13.134094 -1.839861 9.058799
RightLeg 19.213144 -0.000000 -0.000000
RightFoot -25.318608 -24.984650 15.999870
RightToeBase 18.747196 -0.000000 -0.000000
213
root 30.368753 35.029568 -24.156717 -136.973560 85.888254 -135.842540
Spine 32.020607 4.207657 4.221968
Head 23.465954 -8.111166 2.214893
LeftShoulder -6.828222 -18.905718 -2.604595
LeftArm -7.105220 24.668799 -80.914570
LeftForeArm -0.421365 -0.000000 5.283362
LeftHand 0.304660 -0.000000 1.402555
LeftHandThumb1 -26.253704 0.000000 33.147579
RightShoulder -3.202844 -14.399513 4.277294
RightArm 25.554714 -15.527609 64.513108
RightForeArm -20.546637 -0.000000 20.898943
RightHand 0.043791 -0.000000 0.493187
RightHandThumb1 -24.326973 -0.000000 -32.862282
LeftUpLeg -20.163290 -0.283538 -1.844534
LeftLeg 17.335604 -0.000000 -0.000000
LeftFoot -18.581055 25.773292 -9.883852
LeftToeBase 14.922331 -0.000000 -0.000000
RightUpLeg -13.091473 -1.853735 9.091357
RightLeg 19.188422 -0.000000 -0.000000
RightFoot -25.106230 -25.064695 15.869219
RightToeBase 19.538688 -0.000000 -0.000000
214
root 30.422940 35.026854 -24.161044 -137.864519 85.818153 -136.800061
Spine 32.275671 4.119578 4.100068
Head 23.156997 -8.132119 2.283093
LeftShoulder -6.747565 -19.096232 -2.458216
LeftArm -6.893191 25.000372 -80.892507
LeftForeArm -0.614976 -0.000000 5.401089
LeftHand 0.338451 -0.000000 1.550985
LeftHandThumb1 -26.253704 0.000000 33.147579
RightShoulder -3.180984 -14.337405 4.288778
RightArm 25.725803 -15.593079 64.448312
RightForeArm -20.731238 0.000000 21.029215
RightHand -0.022886 -0.000000 0.513322
RightHandThumb1 -24.326973 -0.000000 -32.862282
LeftUpLeg -20.024022 -0.500938 -1.821453
LeftLeg 17.133476 -0.000000 -0.000000
LeftFoot -18.721950 25.891292 -9.867597
LeftToeBase 14.892313 -0.000000 -0.000000
RightUpLeg -13.160251 -1.945365 9.074203
RightLeg 19.304775 -0.000000 -0.000000
RightFoot -24.862433 -24.999404 15.726129
RightToeBase 20.160567 -0.000000 -0.000000
215
root 30.469803 35.021890 -24.170578 -138.734978 85.764105 -137.746350
Spine 32.559404 4.067821 3.970608
Head 22.807947 -8.164200 2.440617
LeftShoulder -6.647348 -19.122372 -2.305229
LeftArm -6.365686 25.045105 -80.779993
LeftForeArm -0.609474 0.000000 5.333660
LeftHand 0.437944 -0.000000 1.618617
LeftHandThumb1 -26.253704 0.000000 33.147579
RightShoulder -3.150380 -14.187176 4.300041
RightArm 25.842859 -15.791317 64.306717
RightForeArm -20.556613 -0.000000 21.145758
RightHand 0.072108 -0.000000 0.506186
RightHandThumb1 -24.326973 -0.000000 -32.862282
LeftUpLeg -19.919707 -0.684107 -1.831419
LeftLeg 16.973521 -0.000000 -0.000000
LeftFoot -18.890396 26.052104 -9.893156
LeftToeBase 14.837452 -0.000000 -0.000000
RightUpLeg -13.264397 -2.107796 9.048121
RightLeg 19.448483 -0.000000 -0.000000
RightFoot -24.691931 -24.952742 15.656148
RightToeBase 20.746696 -0.000000 -0.000000
